<mxfile host="app.diagrams.net" modified="2022-06-28T11:23:50.966Z" agent="5.0 (Macintosh; Intel Mac OS X 10_15_7) AppleWebKit/537.36 (KHTML, like Gecko) Chrome/102.0.0.0 Safari/537.36" etag="rMQIb4T4gbuUH9Xmd7kt" version="20.0.3" type="github">
  <diagram id="IfhzZcQky3KM6qUYi01D" name="第 1 页">
    <mxGraphModel dx="923" dy="639" grid="1" gridSize="10" guides="1" tooltips="1" connect="1" arrows="1" fold="1" page="1" pageScale="1" pageWidth="827" pageHeight="1169" math="0" shadow="0">
      <root>
        <mxCell id="0" />
        <mxCell id="1" parent="0" />
        <mxCell id="Mdzog8TR0-WEwi9GGIdp-5" value="" style="endArrow=classic;html=1;rounded=0;fontSize=18;strokeWidth=3;" edge="1" parent="1">
          <mxGeometry width="50" height="50" relative="1" as="geometry">
            <mxPoint x="60" y="290" as="sourcePoint" />
            <mxPoint x="340" y="290" as="targetPoint" />
          </mxGeometry>
        </mxCell>
        <mxCell id="Mdzog8TR0-WEwi9GGIdp-8" value="Process A" style="text;strokeColor=none;fillColor=none;html=1;fontSize=24;fontStyle=1;verticalAlign=middle;align=center;" vertex="1" parent="1">
          <mxGeometry x="150" y="250" width="100" height="40" as="geometry" />
        </mxCell>
        <mxCell id="Mdzog8TR0-WEwi9GGIdp-10" value="" style="shape=crossbar;whiteSpace=wrap;html=1;rounded=1;fontSize=18;strokeWidth=2;" vertex="1" parent="1">
          <mxGeometry x="340" y="410" width="180" height="20" as="geometry" />
        </mxCell>
        <mxCell id="Mdzog8TR0-WEwi9GGIdp-11" value="" style="endArrow=classic;html=1;rounded=0;fontSize=18;strokeWidth=3;" edge="1" parent="1">
          <mxGeometry width="50" height="50" relative="1" as="geometry">
            <mxPoint x="520" y="289" as="sourcePoint" />
            <mxPoint x="800" y="289" as="targetPoint" />
          </mxGeometry>
        </mxCell>
        <mxCell id="Mdzog8TR0-WEwi9GGIdp-12" value="Process&amp;nbsp;B" style="text;strokeColor=none;fillColor=none;html=1;fontSize=24;fontStyle=1;verticalAlign=middle;align=center;" vertex="1" parent="1">
          <mxGeometry x="610" y="249" width="100" height="40" as="geometry" />
        </mxCell>
        <mxCell id="Mdzog8TR0-WEwi9GGIdp-15" value="&lt;font style=&quot;font-size: 21px;&quot;&gt;Kernel&lt;/font&gt;" style="text;html=1;align=center;verticalAlign=middle;resizable=0;points=[];autosize=1;strokeColor=none;fillColor=none;fontSize=18;" vertex="1" parent="1">
          <mxGeometry x="398" y="420" width="80" height="40" as="geometry" />
        </mxCell>
        <mxCell id="Mdzog8TR0-WEwi9GGIdp-16" value="" style="endArrow=classic;html=1;rounded=0;fontSize=21;strokeWidth=2;dashed=1;strokeColor=#FF0000;" edge="1" parent="1">
          <mxGeometry width="50" height="50" relative="1" as="geometry">
            <mxPoint x="342" y="293" as="sourcePoint" />
            <mxPoint x="424.8571428571429" y="413" as="targetPoint" />
            <Array as="points">
              <mxPoint x="382" y="353" />
            </Array>
          </mxGeometry>
        </mxCell>
        <mxCell id="Mdzog8TR0-WEwi9GGIdp-17" value="" style="endArrow=classic;html=1;rounded=0;dashed=1;fontSize=21;strokeWidth=2;strokeColor=#FF0000;" edge="1" parent="1" source="Mdzog8TR0-WEwi9GGIdp-10">
          <mxGeometry width="50" height="50" relative="1" as="geometry">
            <mxPoint x="430" y="410" as="sourcePoint" />
            <mxPoint x="520" y="290" as="targetPoint" />
          </mxGeometry>
        </mxCell>
        <mxCell id="Mdzog8TR0-WEwi9GGIdp-18" value="&lt;font color=&quot;#ff0000&quot;&gt;Save PCB A&lt;/font&gt;" style="text;html=1;align=center;verticalAlign=middle;resizable=0;points=[];autosize=1;strokeColor=none;fillColor=none;fontSize=21;" vertex="1" parent="1">
          <mxGeometry x="235" y="340" width="140" height="40" as="geometry" />
        </mxCell>
        <mxCell id="Mdzog8TR0-WEwi9GGIdp-20" value="&lt;font color=&quot;#ff0000&quot;&gt;Recovery PCB B&lt;/font&gt;" style="text;html=1;align=center;verticalAlign=middle;resizable=0;points=[];autosize=1;strokeColor=none;fillColor=none;fontSize=21;" vertex="1" parent="1">
          <mxGeometry x="480" y="340" width="180" height="40" as="geometry" />
        </mxCell>
        <mxCell id="Mdzog8TR0-WEwi9GGIdp-21" value="" style="shape=curlyBracket;whiteSpace=wrap;html=1;rounded=1;fontSize=21;fontColor=#FF0000;strokeColor=#7F00FF;strokeWidth=2;rotation=90;" vertex="1" parent="1">
          <mxGeometry x="419" y="177" width="20" height="184" as="geometry" />
        </mxCell>
        <mxCell id="Mdzog8TR0-WEwi9GGIdp-22" value="switch context time" style="text;html=1;align=center;verticalAlign=middle;resizable=0;points=[];autosize=1;strokeColor=none;fillColor=none;fontSize=21;fontColor=#FF0000;" vertex="1" parent="1">
          <mxGeometry x="330" y="209" width="200" height="40" as="geometry" />
        </mxCell>
      </root>
    </mxGraphModel>
  </diagram>
</mxfile>
